<?xml version="1.0" standalone="no"?>
<!DOCTYPE svg PUBLIC "-//W3C//DTD SVG 20010904//EN"
 "http://www.w3.org/TR/2001/REC-SVG-20010904/DTD/svg10.dtd">
<svg version="1.0" xmlns="http://www.w3.org/2000/svg"
 width="400.000000pt" height="400.000000pt" viewBox="0 0 400.000000 400.000000"
 preserveAspectRatio="xMidYMid meet">
<metadata>
Created by potrace 1.16, written by Peter Selinger 2001-2019
</metadata>
<g transform="translate(0.000000,400.000000) scale(0.100000,-0.100000)"
fill="#000000" stroke="none">
<path d="M2280 3948 c1 -107 30 -266 70 -388 19 -56 70 -276 69 -295 0 -5 -15
35 -33 90 -40 118 -57 160 -98 240 -17 32 -34 73 -38 89 -7 37 -28 43 -56 18
-11 -11 -26 -22 -34 -26 -20 -8 30 -1 55 9 l20 8 -20 -17 c-11 -10 -14 -15 -7
-11 32 16 2 -29 -107 -159 -35 -42 -64 -76 -65 -76 -1 0 -2 9 -2 19 0 11 4 17
8 15 4 -3 8 3 8 13 -1 14 -6 12 -25 -12 -14 -16 -21 -31 -17 -33 5 -1 6 -17 4
-35 -4 -26 -2 -30 9 -19 26 24 28 11 4 -25 -40 -63 -59 -83 -77 -83 -10 0 -40
-9 -68 -20 -27 -11 -50 -16 -50 -10 0 13 41 82 63 105 19 20 19 20 15 -12 -6
-42 1 -41 30 0 26 39 28 49 6 40 -9 -3 -20 0 -25 8 -6 10 -9 10 -9 2 0 -7 -6
-13 -13 -13 -17 0 -58 -46 -49 -55 4 -3 -1 -3 -9 0 -9 3 -23 -3 -34 -15 -10
-11 -26 -20 -36 -20 -10 0 -46 -32 -80 -72 -61 -72 -89 -97 -89 -81 0 19 96
162 152 227 32 37 56 71 53 75 -4 3 -20 -10 -36 -29 -93 -110 -147 -181 -169
-223 -21 -40 -29 -47 -55 -48 -16 0 -48 -4 -70 -9 l-40 -9 42 2 c23 1 39 -1
37 -4 -2 -4 -46 -23 -97 -43 -51 -20 -133 -56 -181 -81 -91 -47 -126 -52 -107
-17 6 11 24 25 40 32 17 7 28 16 26 21 -3 4 3 8 12 7 10 0 41 11 68 25 28 14
45 26 38 26 -21 1 -107 -30 -124 -45 -9 -8 -30 -19 -48 -24 l-31 -9 6 42 c12
90 45 150 120 219 91 84 231 157 322 167 l57 7 -55 7 c-30 3 -84 2 -120 -3
l-65 -9 73 3 c40 2 71 2 70 1 -2 -2 -55 -17 -118 -35 -63 -17 -137 -44 -165
-60 -56 -32 -132 -107 -164 -160 -12 -19 -21 -32 -21 -28 0 11 39 92 57 118
17 24 17 25 -1 10 -11 -8 -34 -46 -53 -85 -31 -65 -34 -76 -32 -161 l2 -91
-45 -42 c-25 -22 -52 -41 -60 -41 -9 0 -21 -7 -28 -15 -10 -12 -10 -15 1 -15
8 0 20 4 28 9 14 9 41 -8 41 -26 0 -14 -84 -93 -99 -93 -8 0 -11 -6 -6 -17 5
-15 4 -16 -6 -5 -10 9 -10 15 -1 24 16 16 15 27 -3 24 -9 -1 -55 -38 -102 -82
-48 -43 -98 -88 -111 -98 l-25 -20 18 30 c10 16 26 38 36 49 9 11 20 31 24 44
6 19 0 16 -26 -15 -50 -57 -73 -92 -112 -170 l-35 -69 -61 -14 c-34 -7 -64
-18 -68 -24 -4 -6 0 -8 10 -4 8 3 44 9 79 12 35 4 80 13 101 21 20 8 47 14 60
14 21 -1 21 -1 -3 -14 -14 -7 -42 -16 -63 -20 -47 -9 -41 -21 15 -30 32 -5 39
-9 27 -16 -17 -10 -67 -15 -249 -26 -69 -5 -117 -10 -107 -12 30 -6 69 -30 59
-36 -5 -3 -42 -10 -83 -16 -89 -14 -229 -58 -229 -73 0 -6 3 -7 7 -4 3 4 17
-3 29 -14 21 -20 24 -20 30 -5 3 9 13 16 21 16 8 0 11 5 7 12 -5 7 -3 8 5 3 7
-4 68 -8 136 -9 68 0 127 -4 131 -8 4 -5 0 -16 -9 -26 -18 -19 -23 -37 -9 -28
5 3 9 -1 9 -9 0 -8 -5 -15 -10 -15 -6 0 -7 -3 -4 -6 9 -9 -12 -46 -23 -39 -4
3 -10 2 -13 -2 -2 -5 -2 -2 -1 5 5 18 -14 15 -25 -5 -5 -10 -13 -14 -17 -10
-5 5 -2 12 6 17 17 10 15 12 -28 27 -24 9 -31 9 -26 0 5 -8 2 -8 -7 1 -7 6
-23 12 -35 12 -13 0 -26 5 -29 10 -3 6 -15 10 -26 10 -11 0 -17 5 -14 10 4 6
11 7 17 4 7 -4 8 -2 4 5 -6 9 -11 9 -21 1 -9 -8 -14 -8 -17 0 -2 6 -4 -7 -4
-29 -1 -31 3 -42 17 -46 11 -4 19 -10 19 -15 0 -5 6 -7 14 -4 8 3 14 -1 13 -8
-1 -37 4 -58 16 -58 7 0 30 -15 52 -32 22 -18 35 -27 31 -19 -6 10 -5 12 2 7
7 -4 12 -17 12 -30 0 -12 17 -38 40 -61 21 -21 36 -43 33 -49 -3 -6 -3 -8 1
-5 4 4 18 -4 32 -18 13 -13 29 -21 34 -18 17 11 11 -11 -9 -29 -17 -16 -21
-15 -68 21 -80 61 -173 145 -167 154 7 12 -107 130 -119 122 -5 -3 -7 -1 -4 4
4 6 -2 18 -13 28 -20 18 -20 17 -20 -14 0 -25 14 -48 58 -100 31 -37 71 -87
87 -110 17 -23 45 -61 64 -84 85 -106 83 -100 66 -140 -23 -55 -19 -113 10
-164 30 -50 68 -73 122 -73 l38 0 14 -67 c70 -346 16 -560 -150 -592 l-44 -9
40 -1 c58 -1 123 35 159 89 34 50 52 110 61 214 l7 70 28 -85 c15 -46 40 -108
54 -136 14 -29 26 -56 26 -59 0 -3 25 -38 55 -78 65 -87 138 -156 162 -156 12
1 7 6 -12 15 -16 7 -23 14 -15 14 8 1 -3 13 -24 27 -57 39 -113 173 -140 334
-5 30 -4 32 6 15 43 -75 106 -162 149 -205 50 -50 50 -51 61 -139 11 -87 10
-90 -15 -137 l-27 -49 40 45 c21 24 40 53 42 65 3 18 11 20 97 22 86 3 93 2
75 -12 -10 -8 -39 -24 -63 -35 -50 -23 -147 -85 -156 -101 -4 -5 23 8 59 30
135 83 165 94 248 95 l76 1 6 -29 c8 -40 7 -48 -4 -41 -5 3 -10 1 -10 -4 0 -6
-7 -11 -16 -11 -8 0 -12 -4 -9 -10 3 -5 -3 -10 -14 -10 -11 0 -26 -6 -33 -13
-7 -7 -16 -14 -21 -15 -26 -5 -107 -46 -107 -54 0 -5 -4 -6 -10 -3 -5 3 -10 2
-10 -4 0 -5 -9 -13 -20 -16 -11 -4 -18 -11 -15 -16 3 -5 -1 -6 -10 -3 -8 4
-21 2 -28 -4 -14 -11 -117 -26 -117 -17 0 4 5 15 11 26 10 19 9 19 -10 9 -12
-6 -21 -20 -21 -30 0 -17 7 -20 53 -20 28 0 70 5 92 10 91 23 228 50 232 46 2
-2 -11 -15 -29 -29 -40 -31 -143 -56 -259 -64 -135 -9 -164 7 -133 70 l15 32
-21 -24 c-42 -49 -23 -76 82 -117 40 -15 80 -33 88 -39 8 -6 35 -20 60 -30 46
-20 72 -36 149 -93 l44 -32 1404 0 1403 0 0 678 c-1 597 -2 675 -15 658 -8
-11 -15 -28 -15 -37 0 -23 -135 -146 -166 -152 -13 -2 -24 0 -24 4 0 5 4 9 8
9 9 0 176 166 198 198 9 13 14 37 12 58 l-3 36 -32 -24 c-134 -97 -237 -165
-287 -189 l-59 -28 -61 31 c-80 41 -248 115 -311 137 -55 20 -121 55 -147 78
-9 8 -29 39 -44 69 -15 30 -28 53 -30 51 -1 -1 7 -29 18 -62 25 -75 21 -191
-10 -280 -11 -33 -32 -112 -47 -175 -15 -64 -34 -123 -43 -132 -23 -24 -162
-83 -297 -126 -96 -31 -126 -36 -241 -40 -129 -4 -131 -4 -190 26 -63 32 -179
106 -203 130 -8 7 -24 20 -37 29 -13 8 -24 18 -24 22 0 3 25 7 56 9 76 4 117
20 54 21 -25 1 -67 7 -95 15 -52 14 -190 79 -199 94 -3 5 22 13 55 16 33 4 70
11 82 16 18 6 13 9 -30 15 -52 7 -53 8 -53 41 l0 33 26 -24 c34 -32 114 -49
165 -35 48 13 51 21 4 13 -29 -5 -35 -3 -36 13 0 11 -2 28 -4 39 -7 31 43 125
65 125 10 0 25 7 34 15 8 8 19 15 25 15 18 0 12 32 -12 74 -24 42 -30 47 -92
73 l-40 16 50 17 c123 41 137 48 90 50 -36 1 -38 2 -22 14 15 12 12 13 -25 9
-43 -4 -43 -4 -103 69 l-60 73 50 -29 c28 -16 57 -34 65 -41 8 -7 39 -25 69
-40 47 -23 57 -25 78 -14 l24 13 -48 49 -48 49 49 -31 c28 -17 55 -31 60 -31
6 0 24 12 39 26 32 27 33 22 -25 99 l-23 30 45 -34 c25 -19 51 -39 59 -45 9
-7 7 1 -5 18 l-19 29 25 -16 c23 -15 27 -14 51 6 14 12 29 30 32 40 4 9 13 17
22 17 19 0 19 16 0 71 -16 45 -14 45 23 -5 25 -33 25 -32 13 12 -12 40 -6 41
14 2 9 -17 20 -28 25 -25 6 4 10 1 10 -5 0 -6 4 -9 9 -6 5 3 14 -8 22 -25 21
-51 56 -88 79 -82 11 3 20 14 20 24 0 23 31 37 71 31 28 -4 29 -6 29 -58 0
-43 -4 -56 -22 -68 l-22 -16 22 0 c15 0 24 8 29 28 11 41 8 115 -6 120 -6 2
-11 8 -11 13 0 6 5 7 11 3 7 -4 9 0 6 12 -3 11 -11 38 -17 61 -18 70 -85 133
-142 133 l-22 0 20 21 c23 22 88 35 128 25 23 -6 46 -52 58 -121 2 -11 8 9 12
45 9 73 14 67 37 -50 8 -43 21 -73 37 -89 19 -19 23 -32 20 -62 -4 -46 8 -52
17 -9 9 39 24 28 60 -43 24 -48 27 -46 10 9 -5 16 -1 23 17 29 23 8 23 8 -4
12 -35 5 -35 9 2 40 17 13 30 29 30 35 0 6 -6 6 -14 -1 -8 -7 -27 -11 -43 -9
-23 3 -29 9 -34 40 -3 20 -12 44 -19 53 -16 19 -19 16 65 55 59 28 86 34 175
39 89 6 101 9 80 18 l-25 12 25 1 c23 1 24 2 5 10 -11 5 -46 14 -77 20 -32 6
-60 15 -63 19 -2 5 15 21 38 38 60 43 65 45 73 32 5 -8 3 -9 -7 -3 -18 11 44
-68 68 -87 17 -13 17 -13 2 6 -9 11 -29 45 -44 75 l-26 55 26 -32 c14 -18 32
-30 39 -27 7 3 21 -8 30 -23 l17 -28 -20 23 c-10 12 -23 22 -27 22 -11 0 34
-47 81 -83 l40 -32 -25 34 c-57 76 -57 77 -8 42 42 -30 49 -32 65 -20 16 13
17 12 5 -3 -12 -15 -10 -19 17 -32 16 -9 47 -16 67 -16 l38 0 -41 34 c-22 19
-56 66 -76 103 -39 76 -39 77 20 165 14 21 22 42 17 49 -4 7 -3 10 4 5 23 -14
81 218 82 330 0 31 5 44 18 49 35 13 221 17 346 6 71 -6 131 -9 133 -7 9 8
-185 37 -294 42 -97 5 -125 4 -157 -10 -21 -9 -40 -16 -42 -16 -2 0 -4 33 -4
73 0 112 -18 336 -34 418 -8 41 -13 75 -12 77 2 1 27 -30 57 -70 64 -88 399
-425 452 -455 42 -25 51 -16 10 10 -16 9 -48 35 -73 57 l-45 41 66 -46 c37
-25 69 -45 73 -45 3 0 6 236 6 525 l0 525 -385 0 -384 0 -76 -30 c-42 -16 -81
-30 -87 -30 -6 0 -35 11 -64 25 -30 14 -68 28 -86 31 -31 5 -30 4 17 -25 50
-31 50 -31 15 -25 -19 3 -70 17 -113 31 -66 21 -89 24 -143 18 -35 -3 -62 -11
-61 -17 1 -5 -6 -15 -15 -21 -13 -9 -21 -7 -36 6 -26 24 -32 21 -32 -13 0 -32
-8 -37 -29 -17 -10 8 -12 8 -7 0 5 -9 -1 -10 -23 -3 -27 7 -29 6 -26 -19 1
-14 6 -34 10 -43 4 -10 5 -18 2 -18 -3 0 -24 34 -46 75 -37 66 -45 75 -70 75
-34 0 -41 -13 -41 -83 0 -37 -3 -48 -10 -37 -5 8 -10 39 -10 68 0 28 -4 52
-10 52 -5 0 -10 -24 -10 -52z m-28 -379 c9 -24 17 -56 17 -71 1 -15 5 -29 11
-33 5 -3 6 -13 3 -22 -4 -11 -3 -14 5 -9 7 4 12 1 12 -8 0 -8 3 -21 6 -30 5
-13 -1 -16 -30 -16 -29 0 -36 4 -36 20 0 27 -42 27 -87 -1 -19 -12 -36 -19
-39 -16 -3 3 11 45 31 93 68 163 77 171 107 93z m-29 -178 c-4 -16 3 -19 55
-23 33 -2 67 -10 76 -17 14 -12 13 -15 -10 -34 l-26 -20 41 -36 c38 -34 40
-37 25 -56 -12 -17 -16 -18 -24 -5 -5 8 -6 19 -3 25 3 5 0 4 -8 -3 -11 -10
-11 -17 -2 -31 10 -17 5 -26 -40 -69 -29 -27 -60 -62 -70 -77 -13 -18 -24 -24
-35 -19 -10 4 -46 15 -82 24 l-65 18 -3 55 c-2 32 5 88 17 134 21 82 41 108
106 138 42 19 54 18 48 -4z m-238 -341 c39 -6 103 -18 142 -28 65 -15 72 -19
67 -37 -4 -11 -7 -21 -8 -22 0 -1 -53 5 -116 13 -63 8 -133 11 -155 8 -37 -6
-30 -9 88 -35 143 -31 198 -49 191 -60 -2 -5 5 -6 16 -4 11 2 20 -1 20 -6 0
-6 5 -7 10 -4 6 3 13 -1 16 -10 4 -9 13 -14 21 -11 8 3 12 2 9 -3 -3 -4 6 -13
19 -19 24 -11 35 -42 15 -42 -5 0 -10 -5 -10 -11 0 -5 5 -7 10 -4 6 3 10 2 10
-4 0 -20 -19 -21 -25 -1 -6 20 -25 28 -25 11 0 -5 -9 -11 -21 -14 -17 -5 -18
-3 -8 9 6 8 9 17 5 21 -3 3 -6 1 -6 -6 0 -8 -7 -11 -15 -7 -8 3 -23 2 -34 -2
-16 -6 -17 -9 -5 -20 8 -7 14 -10 14 -7 0 3 9 1 20 -5 21 -11 17 -39 -5 -36
-7 1 -21 8 -30 16 -9 8 -24 15 -33 16 -33 4 -179 62 -287 114 -60 30 -128 59
-150 66 l-40 12 58 7 c52 7 90 25 52 25 -9 0 -23 7 -31 15 -14 13 -12 15 13
16 29 1 23 4 -39 14 -43 7 -49 21 -15 35 30 12 176 12 262 0z m-144 -226 c30
-9 84 -32 121 -51 74 -39 163 -125 154 -149 -3 -8 -2 -13 3 -10 5 3 15 -2 22
-11 8 -10 9 -14 2 -10 -20 12 -26 -14 -7 -28 18 -14 18 -14 -2 -15 -20 0 -26
-22 -12 -46 4 -5 3 -16 -2 -24 -6 -10 0 -31 19 -65 34 -59 95 -204 89 -210 -2
-2 -13 17 -23 42 -38 91 -93 187 -111 198 -27 15 -44 38 -39 53 2 6 -2 12 -10
12 -15 0 -19 -10 -15 -44 2 -22 -42 -66 -48 -48 -2 7 -12 17 -23 22 -17 10
-18 8 -9 -15 5 -14 7 -25 5 -25 -3 0 4 -18 15 -40 11 -21 22 -56 24 -77 l5
-38 -11 33 c-7 21 -16 31 -25 28 -7 -3 -13 -1 -13 4 0 6 4 10 10 10 11 0 0 32
-35 102 -21 42 -132 198 -141 198 -2 0 12 -24 31 -52 27 -41 82 -142 113 -209
5 -11 -80 -99 -95 -99 -7 0 -13 -7 -13 -16 0 -9 -7 -31 -16 -50 -14 -29 -20
-33 -42 -27 -21 5 -24 3 -19 -10 7 -19 -27 -42 -46 -31 -6 4 -3 -2 7 -14 18
-21 13 -28 -16 -23 -18 3 -6 -49 15 -66 32 -27 96 -100 72 -83 -11 8 -23 19
-26 23 -3 5 -9 8 -13 8 -3 -1 -6 2 -5 5 0 9 -50 46 -69 49 -9 2 -18 4 -20 4
-2 1 0 6 3 11 4 6 12 7 19 3 7 -4 3 0 -7 9 -11 10 -24 15 -30 11 -5 -3 -7 -1
-3 5 3 6 2 13 -4 17 -5 3 -10 1 -10 -5 0 -6 -4 -9 -9 -6 -14 9 -154 197 -170
229 -8 15 -18 27 -21 27 -8 0 -48 89 -53 117 -2 10 -9 28 -15 41 -7 12 -15 46
-18 75 l-5 52 35 -55 c20 -30 36 -46 36 -37 0 31 31 18 46 -20 33 -83 134
-249 134 -220 0 10 -11 34 -24 55 -49 78 -125 239 -107 228 4 -3 17 4 27 15
14 15 26 19 47 15 26 -5 29 -4 24 16 -6 21 14 81 30 91 10 6 117 -41 121 -54
2 -5 8 -9 13 -9 16 0 -11 41 -63 98 -43 48 -57 72 -43 72 2 0 20 -8 40 -17 29
-14 43 -15 76 -6 38 10 43 8 97 -28 31 -21 77 -55 102 -75 25 -20 12 -6 -28
33 -58 55 -112 123 -98 123 1 0 27 -7 57 -16z m1138 -154 c7 -33 20 -83 31
-112 46 -130 69 -185 89 -218 11 -19 21 -42 21 -51 0 -16 -51 -59 -69 -59 -32
0 -94 187 -118 353 -17 116 -17 119 2 133 10 8 22 14 26 14 3 0 12 -27 18 -60z
m-729 -40 c36 -17 74 -36 85 -43 99 -60 148 -92 198 -129 58 -43 107 -97 107
-117 0 -6 4 -11 10 -11 9 0 53 -90 47 -97 -2 -2 -18 0 -36 3 -30 6 -32 9 -25
38 l7 31 -27 -32 c-15 -17 -39 -34 -55 -38 -16 -3 -37 -15 -47 -26 -18 -20
-18 -20 11 -14 28 6 28 5 -7 -15 -24 -13 -40 -30 -44 -47 -7 -27 -7 -27 -21
12 -7 22 -11 46 -8 54 3 9 3 12 -1 8 -4 -4 -25 28 -47 70 -22 43 -45 85 -53
94 -11 12 -11 18 -1 30 6 7 -4 0 -23 -16 -19 -17 -36 -33 -38 -36 -1 -3 -9
-15 -17 -25 -13 -18 -14 -17 -15 14 0 25 8 41 30 62 l31 29 -37 53 c-20 29
-49 67 -63 84 -14 17 -35 42 -46 55 -11 13 -28 34 -38 46 l-18 22 38 -13 c21
-8 67 -28 103 -46z m560 -136 c25 -75 90 -206 120 -244 l20 -25 -15 38 c-22
55 -14 66 15 21 14 -21 33 -39 43 -40 11 -1 22 -6 25 -10 4 -4 -1 -4 -10 -1
-20 7 -25 -8 -7 -19 8 -4 6 -10 -7 -17 -13 -7 -19 -7 -22 1 -2 7 -8 12 -13 12
-4 0 -6 -6 -3 -13 6 -16 -64 -57 -97 -57 -18 0 -21 -2 -10 -9 12 -8 12 -12 2
-25 -8 -9 -17 -16 -21 -16 -9 0 -49 236 -51 305 -3 67 0 165 5 165 2 0 13 -30
26 -66z m-1925 -15 c-2 -28 -6 -53 -9 -56 -3 -4 -6 -58 -5 -122 l1 -116 13 80
c12 79 35 168 42 162 1 -2 -1 -48 -6 -103 -5 -54 -6 -130 -2 -169 6 -64 7 -57
13 78 6 161 21 210 33 111 9 -68 47 -207 74 -268 91 -204 112 -265 146 -436
l7 -35 -22 28 c-12 16 -36 52 -52 80 -16 29 -27 43 -23 32 9 -26 31 -103 39
-135 4 -14 -9 7 -28 45 -19 39 -35 76 -36 83 0 10 -11 12 -44 7 -24 -4 -52 -3
-62 3 -10 5 -25 6 -33 2 -9 -5 -24 -11 -33 -14 -12 -3 -18 -15 -18 -34 0 -30
-21 -58 -34 -45 -19 19 116 -340 151 -399 2 -5 1 -8 -2 -8 -3 0 -22 35 -41 78
-20 42 -42 88 -49 102 -17 34 -72 203 -85 262 -46 214 -55 492 -19 625 18 67
76 213 85 213 2 0 1 -23 -1 -51z m285 -109 c17 -69 43 -133 96 -237 39 -78 70
-144 68 -147 -2 -3 -1 -4 3 -1 3 3 13 -1 21 -8 13 -10 14 -8 7 13 -4 14 -11
27 -15 30 -10 6 -75 174 -84 215 -24 109 -17 108 34 -5 19 -41 48 -104 66
-140 25 -51 30 -70 23 -90 -9 -24 -9 -24 7 -5 16 19 16 19 8 -5 -4 -14 -7 -47
-7 -74 1 -55 -22 -93 -44 -74 -17 14 -16 4 2 -32 13 -24 13 -33 3 -50 -14 -22
-40 -19 -70 7 -22 19 -80 172 -113 293 -27 104 -30 123 -14 100 8 -12 9 -11 5
5 -18 67 -37 320 -22 304 2 -2 14 -47 26 -99z m140 13 c16 -34 34 -64 40 -68
14 -8 13 -2 -6 44 -24 61 -11 70 21 15 31 -53 146 -211 207 -285 43 -53 42
-79 -2 -79 -27 0 -59 -21 -61 -41 -1 -5 -2 -15 -3 -21 -3 -17 18 -56 49 -93
l26 -30 22 26 c24 29 105 85 112 77 2 -2 -20 -32 -50 -67 -30 -34 -55 -65 -55
-69 0 -3 17 -24 38 -46 20 -22 28 -34 17 -26 -11 8 -29 25 -40 37 -11 13 -25
20 -31 15 -6 -4 -30 -41 -52 -82 -51 -92 -55 -67 -6 40 l36 78 -48 67 c-27 37
-53 74 -59 83 -53 84 -75 122 -75 126 0 2 -13 33 -29 68 -34 73 -71 194 -71
230 0 13 -4 28 -9 34 -5 5 -12 20 -16 34 -9 37 9 9 45 -67z m-758 -219 c32 -9
58 -20 58 -24 0 -4 6 -7 14 -7 24 0 105 -57 110 -78 3 -11 3 -63 0 -115 -5
-86 -3 -97 15 -117 22 -23 16 -33 -22 -37 -16 -2 -23 3 -23 15 0 10 5 15 10
12 6 -4 6 1 2 13 -5 10 -11 27 -14 38 -4 16 -7 14 -18 -10 l-12 -29 -1 35 c-1
41 -18 30 -22 -15 -4 -40 -19 -61 -31 -43 -5 8 -6 1 -2 -17 4 -16 11 -31 15
-33 15 -6 48 -92 55 -140 3 -27 1 -60 -6 -77 l-12 -30 -19 24 c-11 13 -17 32
-14 41 3 10 -3 33 -14 51 -10 19 -22 53 -26 76 -4 24 -11 45 -16 49 -5 3 -6
11 -2 17 4 7 -1 6 -10 -2 -11 -9 -15 -22 -12 -35 5 -19 4 -19 -12 3 -10 14
-22 38 -28 55 -15 44 -29 41 -44 -9 -14 -49 -17 -51 -34 -32 -25 26 -29 146
-8 210 7 21 27 54 43 73 17 19 25 34 19 34 -6 0 -11 -5 -11 -11 0 -5 -4 -7
-10 -4 -8 5 -42 -39 -54 -70 -2 -6 -11 -6 -24 2 -20 12 -32 8 -32 -11 0 -6 5
-4 10 4 7 11 10 11 10 2 0 -13 -40 -33 -53 -25 -24 14 46 134 94 162 26 15 40
33 22 29 -5 0 -17 3 -28 7 -18 8 -17 10 10 21 40 17 58 17 127 -2z m-166 -544
c0 -19 -6 -55 -13 -80 -12 -39 -11 -51 3 -97 9 -29 21 -53 25 -53 5 0 8 6 6
13 -1 8 13 12 43 13 l45 2 -24 -19 c-26 -21 -72 -24 -119 -8 -21 7 -37 24 -51
52 -35 73 -32 129 10 180 41 50 74 48 75 -3z m2658 -782 c-9 -24 -78 -64 -169
-100 -81 -33 -209 -62 -380 -89 -33 -5 -107 -17 -165 -26 -105 -17 -185 -21
-197 -9 -12 12 4 16 98 26 52 5 127 19 168 30 40 11 99 23 130 26 95 9 425
106 490 144 22 13 31 12 25 -2z m-1159 -328 c-3 -4 -17 -11 -32 -15 -16 -3
-57 -19 -93 -35 -36 -15 -109 -43 -164 -60 -81 -27 -100 -30 -107 -19 -18 28
-7 37 61 54 39 9 73 21 76 26 3 5 9 7 13 5 12 -8 89 19 156 52 55 28 62 29 77
15 10 -9 15 -19 13 -23z"/>
<path d="M3823 2593 c-10 -10 -31 -34 -46 -53 l-28 -35 7 30 7 30 -49 -42
c-27 -22 -58 -50 -68 -62 -19 -21 -19 -22 -1 -15 18 7 18 6 2 -16 -27 -38 -20
-43 18 -14 l35 26 0 -48 c1 -81 58 -174 108 -174 13 0 13 2 0 18 -18 20 -30
52 -20 51 21 -3 32 2 26 14 -5 9 -4 9 6 0 9 -8 19 -9 32 -2 10 6 32 8 48 5 17
-2 28 -1 25 4 -3 4 2 14 11 21 12 10 15 10 12 -2 -2 -8 4 -13 14 -13 11 1 14
-4 11 -14 -5 -10 -2 -13 6 -8 9 6 12 2 9 -15 -2 -13 -9 -23 -16 -21 -8 1 -11
-2 -8 -7 4 -5 -15 -13 -41 -16 -70 -10 -77 -16 -11 -10 93 8 88 0 88 144 0 85
-4 131 -12 139 -9 9 -9 12 1 12 8 0 11 13 9 43 l-3 42 -77 3 c-64 2 -80 0 -95
-15z"/>
</g>
</svg>
